<svg width="22" height="22" viewBox="0 0 22 22" fill="none" xmlns="http://www.w3.org/2000/svg">
<g opacity="0.5">
<path d="M10.0833 3.66671C8.05825 3.66671 6.41667 5.30832 6.41667 7.33337C6.41667 7.36309 6.4171 7.39413 6.41787 7.42709C6.42784 7.85337 6.14257 8.23023 5.72959 8.33635C4.54278 8.64132 3.66667 9.71956 3.66667 11C3.66667 12.5188 4.89791 13.75 6.41667 13.75H7.33333C7.83959 13.75 8.25 14.1604 8.25 14.6667C8.25 15.173 7.83959 15.5834 7.33333 15.5834H6.41667C3.8854 15.5834 1.83333 13.5314 1.83333 11C1.83333 9.10938 2.97752 7.48779 4.61015 6.78679C4.88451 4.00583 7.23017 1.83337 10.0833 1.83337C12.1216 1.83337 13.8993 2.94193 14.8491 4.58634C17.8023 4.68258 20.1667 7.10686 20.1667 10.0834C20.1667 13.1209 17.7043 15.5834 14.6667 15.5834C14.1604 15.5834 13.75 15.173 13.75 14.6667C13.75 14.1604 14.1604 13.75 14.6667 13.75C16.6917 13.75 18.3333 12.1084 18.3333 10.0834C18.3333 8.05832 16.6917 6.41671 14.6667 6.41671C14.5652 6.41671 14.465 6.42081 14.3658 6.42882C13.9745 6.46049 13.6065 6.23942 13.4506 5.87908C12.8868 4.5758 11.5902 3.66671 10.0833 3.66671ZM10.3518 8.51853C10.7098 8.16055 11.2902 8.16055 11.6482 8.51853L13.4815 10.3519C13.8395 10.7098 13.8395 11.2902 13.4815 11.6482C13.1235 12.0062 12.5431 12.0062 12.1852 11.6482L11.9167 11.3797V18.3334C11.9167 18.8396 11.5063 19.25 11 19.25C10.4937 19.25 10.0833 18.8396 10.0833 18.3334V11.3797L9.81485 11.6482C9.45687 12.0062 8.87646 12.0062 8.51848 11.6482C8.1605 11.2902 8.1605 10.7098 8.51848 10.3519L10.3518 8.51853Z" fill="white"/>
</g>
</svg>
